<svg xmlns="http://www.w3.org/2000/svg" xmlns:xlink="http://www.w3.org/1999/xlink" width="75" zoomAndPan="magnify" viewBox="0 0 56.25 56.249997" height="75" preserveAspectRatio="xMidYMid meet" version="1.0"><defs><clipPath id="f12199062c"><path d="M 6.332031 6.332031 L 49.261719 6.332031 L 49.261719 49.261719 L 6.332031 49.261719 Z M 6.332031 6.332031 " clip-rule="nonzero"/></clipPath></defs><g clip-path="url(#f12199062c)"><path fill="#ffffff" d="M 49.269531 27.804688 C 49.269531 39.664062 39.660156 49.273438 27.804688 49.273438 C 15.949219 49.273438 6.335938 39.664062 6.335938 27.804688 C 6.335938 15.949219 15.949219 6.339844 27.804688 6.339844 C 39.660156 6.339844 49.269531 15.949219 49.269531 27.804688 M 39.269531 27.804688 C 39.269531 21.472656 34.136719 16.339844 27.804688 16.339844 C 21.472656 16.339844 16.339844 21.472656 16.339844 27.804688 C 16.339844 34.140625 21.472656 39.273438 27.804688 39.273438 C 34.136719 39.273438 39.269531 34.140625 39.269531 27.804688 Z M 39.269531 27.804688 " fill-opacity="1" fill-rule="nonzero"/></g></svg>