<svg xmlns="http://www.w3.org/2000/svg" xmlns:xlink="http://www.w3.org/1999/xlink" width="75" zoomAndPan="magnify" viewBox="0 0 56.25 56.249997" height="75" preserveAspectRatio="xMidYMid meet" version="1.0"><defs><clipPath id="d946aef909"><path d="M 7.113281 7.453125 L 48.5625 7.453125 L 48.5625 48.160156 L 7.113281 48.160156 Z M 7.113281 7.453125 " clip-rule="nonzero"/></clipPath></defs><g clip-path="url(#d946aef909)"><path fill="#ffffff" d="M 27.835938 48.132812 C 22.210938 48.132812 16.578125 48.132812 10.953125 48.132812 C 8.46875 48.128906 7.113281 45.871094 8.25 43.65625 C 9.589844 41.03125 10.914062 38.394531 12.242188 35.757812 C 13.632812 33.007812 15.019531 30.257812 16.402344 27.503906 C 18.039062 24.238281 19.667969 20.96875 21.308594 17.703125 C 22.570312 15.195312 23.855469 12.695312 25.105469 10.179688 C 25.464844 9.457031 25.800781 8.753906 26.546875 8.3125 C 28.003906 7.453125 29.90625 8.007812 30.652344 9.53125 C 31.644531 11.5625 32.648438 13.589844 33.648438 15.617188 C 34.5 17.347656 35.355469 19.078125 36.210938 20.804688 C 37.0625 22.523438 37.914062 24.238281 38.769531 25.953125 C 40.105469 28.625 41.457031 31.292969 42.789062 33.96875 C 44.238281 36.878906 45.667969 39.792969 47.105469 42.710938 C 47.328125 43.15625 47.574219 43.597656 47.761719 44.058594 C 48.5625 46.011719 47.308594 47.992188 45.195312 48.117188 C 44.550781 48.15625 43.90625 48.140625 43.257812 48.140625 C 38.117188 48.144531 32.976562 48.140625 27.835938 48.140625 C 27.835938 48.136719 27.835938 48.136719 27.835938 48.132812 Z M 28.003906 17.460938 C 27.859375 17.683594 27.789062 17.773438 27.738281 17.871094 C 26.660156 20.003906 25.578125 22.140625 24.503906 24.277344 C 22.953125 27.359375 21.40625 30.449219 19.855469 33.53125 C 18.488281 36.246094 17.125 38.960938 15.761719 41.679688 C 15.535156 42.132812 15.648438 42.308594 16.164062 42.308594 C 17.183594 42.308594 18.203125 42.304688 19.222656 42.304688 C 26.058594 42.300781 32.890625 42.296875 39.726562 42.296875 C 40.195312 42.296875 40.332031 42.089844 40.125 41.679688 C 39.695312 40.824219 39.265625 39.964844 38.835938 39.109375 C 37.828125 37.082031 36.824219 35.054688 35.820312 33.027344 C 34.371094 30.101562 32.929688 27.175781 31.484375 24.25 C 30.550781 22.363281 29.609375 20.484375 28.664062 18.605469 C 28.480469 18.238281 28.253906 17.894531 28.003906 17.460938 Z M 28.003906 17.460938 " fill-opacity="1" fill-rule="nonzero"/></g></svg>